<mxfile host="app.diagrams.net" modified="2023-04-16T13:58:29.102Z" agent="Mozilla/5.0 (Macintosh; Intel Mac OS X 10_15_7) AppleWebKit/537.36 (KHTML, like Gecko) Chrome/112.0.0.0 Safari/537.36" version="21.1.8" etag="_tQMtsQZbkDLOFJ97unv" type="github">
  <diagram name="Page-1" id="hJfmjpkYNyd3gFhKxz17">
    <mxGraphModel>
      <root>
        <mxCell id="0" />
        <mxCell id="1" parent="0" />
        <mxCell id="2" value="ETL Process" style="whiteSpace=wrap;strokeWidth=2;verticalAlign=top;" vertex="1" parent="1">
          <mxGeometry x="134" y="259" width="156" height="358" as="geometry" />
        </mxCell>
        <mxCell id="3" value="Transform" style="ellipse;aspect=fixed;strokeWidth=2;whiteSpace=wrap;" vertex="1" parent="1">
          <mxGeometry x="169" y="284" width="86" height="86" as="geometry" />
        </mxCell>
        <mxCell id="4" value="Load" style="ellipse;aspect=fixed;strokeWidth=2;whiteSpace=wrap;" vertex="1" parent="1">
          <mxGeometry x="188" y="420" width="49" height="49" as="geometry" />
        </mxCell>
        <mxCell id="5" value="MariaDB" style="ellipse;aspect=fixed;strokeWidth=2;whiteSpace=wrap;" vertex="1" parent="1">
          <mxGeometry x="176" y="519" width="73" height="73" as="geometry" />
        </mxCell>
        <mxCell id="6" value="Web Scraper" style="whiteSpace=wrap;strokeWidth=2;verticalAlign=top;" vertex="1" parent="1">
          <mxGeometry width="425" height="209" as="geometry" />
        </mxCell>
        <mxCell id="7" value="Scraping" style="ellipse;aspect=fixed;strokeWidth=2;whiteSpace=wrap;" vertex="1" parent="1">
          <mxGeometry x="175" y="109" width="75" height="75" as="geometry" />
        </mxCell>
        <mxCell id="8" value="Website 1" style="whiteSpace=wrap;strokeWidth=2;" vertex="1" parent="1">
          <mxGeometry x="35" y="25" width="85" height="34" as="geometry" />
        </mxCell>
        <mxCell id="9" value="Website 2" style="whiteSpace=wrap;strokeWidth=2;" vertex="1" parent="1">
          <mxGeometry x="170" y="25" width="85" height="34" as="geometry" />
        </mxCell>
        <mxCell id="10" value="Website 3" style="whiteSpace=wrap;strokeWidth=2;" vertex="1" parent="1">
          <mxGeometry x="305" y="25" width="85" height="34" as="geometry" />
        </mxCell>
        <mxCell id="11" value="" style="curved=1;startArrow=none;endArrow=block;exitX=0.49917279411764703;exitY=0.9852941176470589;entryX=-0.00609375;entryY=0.26245264616643493;" edge="1" parent="1" source="8" target="7">
          <mxGeometry relative="1" as="geometry">
            <Array as="points">
              <mxPoint x="77" y="84" />
            </Array>
          </mxGeometry>
        </mxCell>
        <mxCell id="12" value="" style="curved=1;startArrow=none;endArrow=block;exitX=0.49751838235294116;exitY=0.9852941176470589;entryX=0.4971875;entryY=-0.006666666666666667;" edge="1" parent="1" source="9" target="7">
          <mxGeometry relative="1" as="geometry">
            <Array as="points" />
          </mxGeometry>
        </mxCell>
        <mxCell id="13" value="" style="curved=1;startArrow=none;endArrow=block;exitX=0.4958639705882353;exitY=0.9852941176470589;entryX=1.00046875;entryY=0.26245264616643493;" edge="1" parent="1" source="10" target="7">
          <mxGeometry relative="1" as="geometry">
            <Array as="points">
              <mxPoint x="347" y="84" />
            </Array>
          </mxGeometry>
        </mxCell>
        <mxCell id="14" value="" style="curved=1;startArrow=none;endArrow=block;exitX=0.4971875;exitY=0.9998958333333333;entryX=0.5033611918604651;entryY=-0.00009084302325581395;" edge="1" parent="1" source="7" target="3">
          <mxGeometry relative="1" as="geometry">
            <Array as="points" />
          </mxGeometry>
        </mxCell>
        <mxCell id="15" value="" style="curved=1;startArrow=none;endArrow=block;exitX=0.5033611918604651;exitY=1.0042696220930232;entryX=0.49569515306122447;entryY=0.0074936224489795915;" edge="1" parent="1" source="3" target="4">
          <mxGeometry relative="1" as="geometry">
            <Array as="points" />
          </mxGeometry>
        </mxCell>
        <mxCell id="16" value="" style="curved=1;startArrow=none;endArrow=block;exitX=0.49569515306122447;exitY=1.0076530612244898;entryX=0.4971104452054795;entryY=0.005136986301369863;" edge="1" parent="1" source="4" target="5">
          <mxGeometry relative="1" as="geometry">
            <Array as="points" />
          </mxGeometry>
        </mxCell>
      </root>
    </mxGraphModel>
  </diagram>
</mxfile>
